<svg width="18" height="16" viewBox="0 0 18 16" fill="none" xmlns="http://www.w3.org/2000/svg">
<path d="M4.73827 12.2755C3.20077 11.1838 1.9841 9.7638 1.29661 8.86713C1.10436 8.61961 1 8.31513 1 8.00172C1 7.68831 1.10436 7.38382 1.29661 7.1363C2.54077 5.51214 5.52577 2.16797 9.01077 2.16797C10.5741 2.16797 12.0358 2.84047 13.2858 3.72964" stroke="#A4A4A4" stroke-width="1.66667" stroke-linecap="round" stroke-linejoin="round"/>
<path d="M7.34399 13.5873C7.885 13.7484 8.4462 13.8314 9.01066 13.834C12.4957 13.834 15.4807 10.4898 16.7248 8.86565C16.917 8.61791 17.0213 8.31323 17.0211 7.99967C17.021 7.68612 16.9164 7.38154 16.724 7.13398C16.2867 6.56356 15.8177 6.01825 15.319 5.50065M10.7857 6.23982C10.5542 6.00454 10.2785 5.81741 9.97442 5.68922C9.67031 5.56103 9.34384 5.49433 9.01382 5.49294C8.68381 5.49156 8.35679 5.55553 8.05162 5.68117C7.74645 5.8068 7.46918 5.99162 7.23579 6.22495C7.00241 6.45828 6.81753 6.73551 6.69182 7.04064C6.56611 7.34578 6.50207 7.67279 6.50337 8.00281C6.50468 8.33282 6.57131 8.65931 6.69942 8.96345C6.82754 9.26758 7.0146 9.54334 7.24983 9.77482L10.7857 6.23982ZM2.34399 14.6673L15.6773 1.33398L2.34399 14.6673Z" stroke="#A4A4A4" stroke-width="1.66667" stroke-linecap="round" stroke-linejoin="round"/>
</svg>
