<svg width="143" height="43" fill="none" xmlns="http://www.w3.org/2000/svg"><path d="M23.8 41.4c-3.84 0-6.853-1.08-9.04-3.24-2.16-2.16-3.24-5.28-3.24-9.36V13h5.2v15.6c0 2.88.613 4.973 1.84 6.28 1.253 1.307 3.013 1.96 5.28 1.96 2.267 0 4.013-.653 5.24-1.96 1.227-1.307 1.84-3.4 1.84-6.28V13h5.12v15.8c0 4.08-1.093 7.2-3.28 9.36-2.16 2.16-5.147 3.24-8.96 3.24Zm28.963-19.12h-5.52v-5.32h-3.12v5.32h-4.08v2.64h4.08V35.2c0 3.88.72 6.28 5.16 6.28 1.16 0 2.56-.2 3.64-.68l-.12-2.84c-.84.44-1.84.64-2.76.64-2.76 0-2.8-1.92-2.8-4.32v-9.36h5.52v-2.64ZM56.585 41h3.12v-9.12c0-4.28 1.68-6.96 5.48-6.96.56 0 1.16.08 1.68.24l.2-3.16c-.44-.16-.88-.2-1.28-.2-3.08 0-5.4 1.72-6.24 3.56h-.08c0-1.04-.08-2.08-.08-3.08h-2.96c0 1.24.16 2.72.16 4.44V41Zm15.783-14.28c1.48-1.36 3.56-2.04 5.56-2.04 2.92 0 4.64 1.4 4.64 4.12v.56h-1.2c-4.6 0-11.8.36-11.8 6.56 0 3.64 3.16 5.56 6.96 5.56 2.84 0 4.92-1.36 6.16-3.28h.08c0 .8 0 1.96.2 2.8h3c-.16-.96-.28-2.16-.28-3.24v-8.04c0-5.28-2.32-7.92-7.84-7.92-2.72 0-5.52.92-7.44 2.88l1.96 2.04Zm10.2 5.28v1.2c-.08 3.04-1.92 5.64-5.52 5.64-2.36 0-4.12-.88-4.12-3.24 0-2.52 2.56-3.6 6.52-3.6h3.12Zm24.742-9.72h-3.36l-5.56 14.68h-.08l-5.84-14.68h-3.64L96.47 41h3.44l7.4-18.72Zm17.737 13.48c-1.48 1.88-3.28 2.84-5.96 2.84-3.4 0-5.88-2.76-6.12-6h15.12v-1c0-6.2-3.6-9.8-8.88-9.8-5.52 0-9.6 4.04-9.6 9.84 0 5.44 3.6 9.84 9.48 9.84 3.48 0 6.12-1.04 8.32-3.88l-2.36-1.84Zm-12.08-5.8c.4-3.16 2.68-5.28 6.12-5.28s5.52 2.12 5.64 5.28h-11.76ZM133.193 41h3.12V10.76h-3.12V41Z" fill="#fff"/></svg>